<mxfile host="Electron" modified="2023-12-10T16:06:06.771Z" agent="Mozilla/5.0 (Macintosh; Intel Mac OS X 10_15_7) AppleWebKit/537.36 (KHTML, like Gecko) draw.io/22.1.2 Chrome/114.0.5735.289 Electron/25.9.4 Safari/537.36" etag="HiCHKIcIN27QoyzYcfpA" version="22.1.2" type="device">
  <diagram name="Page-1" id="HqR1BjZ4ox3MJWyNEm7k">
    <mxGraphModel dx="953" dy="631" grid="1" gridSize="10" guides="1" tooltips="1" connect="1" arrows="1" fold="1" page="1" pageScale="1" pageWidth="827" pageHeight="1169" math="0" shadow="0">
      <root>
        <mxCell id="0" />
        <mxCell id="1" parent="0" />
        <mxCell id="o6n3ZqwZsmtGHZvhFfPD-1" value="" style="rounded=0;whiteSpace=wrap;html=1;" parent="1" vertex="1">
          <mxGeometry x="40" y="40" width="760" height="560" as="geometry" />
        </mxCell>
        <mxCell id="o6n3ZqwZsmtGHZvhFfPD-3" value="Amr Shehata" style="rounded=0;whiteSpace=wrap;html=1;" parent="1" vertex="1">
          <mxGeometry x="196" y="87" width="120" height="24" as="geometry" />
        </mxCell>
        <mxCell id="o6n3ZqwZsmtGHZvhFfPD-5" value="&lt;u&gt;About Me&lt;/u&gt;&amp;nbsp; &amp;nbsp; &amp;nbsp; &lt;u&gt;Work&lt;/u&gt;&amp;nbsp; &amp;nbsp; &amp;nbsp;&lt;u&gt;Contact Me&lt;/u&gt;&amp;nbsp; &amp;nbsp; &amp;nbsp;&lt;u&gt;Resume&lt;/u&gt;&amp;nbsp; &amp;nbsp; &amp;nbsp;" style="rounded=0;whiteSpace=wrap;html=1;" parent="1" vertex="1">
          <mxGeometry x="490" y="84" width="294" height="30" as="geometry" />
        </mxCell>
        <mxCell id="o6n3ZqwZsmtGHZvhFfPD-6" value="Amr Shehata&lt;br&gt;Image" style="ellipse;whiteSpace=wrap;html=1;aspect=fixed;" parent="1" vertex="1">
          <mxGeometry x="80" y="54" width="90" height="90" as="geometry" />
        </mxCell>
        <mxCell id="o6n3ZqwZsmtGHZvhFfPD-7" value="My Portfolio" style="rounded=0;whiteSpace=wrap;html=1;" parent="1" vertex="1">
          <mxGeometry x="664" y="149" width="120" height="24" as="geometry" />
        </mxCell>
        <mxCell id="o6n3ZqwZsmtGHZvhFfPD-10" value="" style="rounded=0;whiteSpace=wrap;html=1;" parent="1" vertex="1">
          <mxGeometry x="70" y="220" width="714" height="360" as="geometry" />
        </mxCell>
        <mxCell id="o6n3ZqwZsmtGHZvhFfPD-12" value="&lt;font style=&quot;font-size: 27px;&quot; face=&quot;Verdana&quot;&gt;&amp;nbsp; &amp;nbsp; About&lt;br&gt;&amp;nbsp; &amp;nbsp; &amp;nbsp; &amp;nbsp; Me&lt;/font&gt;" style="rounded=0;whiteSpace=wrap;html=1;align=left;" parent="1" vertex="1">
          <mxGeometry x="90" y="240" width="680" height="100" as="geometry" />
        </mxCell>
        <mxCell id="o6n3ZqwZsmtGHZvhFfPD-13" value="" style="endArrow=none;html=1;rounded=0;exitX=0.392;exitY=0.357;exitDx=0;exitDy=0;exitPerimeter=0;fontSize=20;spacing=2;strokeWidth=2;" parent="1" edge="1">
          <mxGeometry width="50" height="50" relative="1" as="geometry">
            <mxPoint x="221.88799999999992" y="267.94000000000005" as="sourcePoint" />
            <mxPoint x="222" y="307.2635135135133" as="targetPoint" />
          </mxGeometry>
        </mxCell>
        <mxCell id="o6n3ZqwZsmtGHZvhFfPD-14" value="&lt;font face=&quot;Verdana&quot;&gt;&lt;span style=&quot;font-size: 27px;&quot;&gt;&amp;nbsp; &amp;nbsp; &amp;nbsp;Work&lt;br&gt;&lt;/span&gt;&lt;/font&gt;" style="rounded=0;whiteSpace=wrap;html=1;align=left;" parent="1" vertex="1">
          <mxGeometry x="90" y="349" width="680" height="100" as="geometry" />
        </mxCell>
        <mxCell id="o6n3ZqwZsmtGHZvhFfPD-15" value="" style="endArrow=none;html=1;rounded=0;exitX=0.392;exitY=0.357;exitDx=0;exitDy=0;exitPerimeter=0;fontSize=20;spacing=2;strokeWidth=2;" parent="1" edge="1">
          <mxGeometry width="50" height="50" relative="1" as="geometry">
            <mxPoint x="222.88799999999992" y="374.94000000000005" as="sourcePoint" />
            <mxPoint x="223" y="414.2635135135133" as="targetPoint" />
          </mxGeometry>
        </mxCell>
        <mxCell id="o6n3ZqwZsmtGHZvhFfPD-16" value="&lt;font face=&quot;Verdana&quot;&gt;&lt;span style=&quot;font-size: 27px;&quot;&gt;&amp;nbsp; Contact &lt;br&gt;&lt;span style=&quot;white-space: pre;&quot;&gt;&#x9;&lt;/span&gt;Me&lt;br&gt;&lt;/span&gt;&lt;/font&gt;" style="rounded=0;whiteSpace=wrap;html=1;align=left;" parent="1" vertex="1">
          <mxGeometry x="90" y="459" width="680" height="100" as="geometry" />
        </mxCell>
        <mxCell id="o6n3ZqwZsmtGHZvhFfPD-17" value="" style="endArrow=none;html=1;rounded=0;exitX=0.392;exitY=0.357;exitDx=0;exitDy=0;exitPerimeter=0;fontSize=20;spacing=2;strokeWidth=2;" parent="1" edge="1">
          <mxGeometry width="50" height="50" relative="1" as="geometry">
            <mxPoint x="222.88799999999992" y="490.94000000000005" as="sourcePoint" />
            <mxPoint x="223" y="530.2635135135133" as="targetPoint" />
          </mxGeometry>
        </mxCell>
        <mxCell id="o6n3ZqwZsmtGHZvhFfPD-11" value="&lt;u&gt;Mobile: 07999888777&lt;/u&gt;&amp;nbsp; &amp;nbsp; &amp;nbsp; &amp;nbsp; &amp;nbsp;&lt;u&gt;amrshehata@learning.com&lt;/u&gt;&amp;nbsp; &amp;nbsp;&lt;u&gt;GitHub&lt;/u&gt;&amp;nbsp; &amp;nbsp; &amp;nbsp; &amp;nbsp; &amp;nbsp; &lt;u&gt;Linkedin&lt;/u&gt;" style="rounded=0;whiteSpace=wrap;html=1;" parent="1" vertex="1">
          <mxGeometry x="260" y="495" width="455" height="30" as="geometry" />
        </mxCell>
        <mxCell id="o6n3ZqwZsmtGHZvhFfPD-25" value="" style="rounded=1;whiteSpace=wrap;html=1;" parent="1" vertex="1">
          <mxGeometry x="260" y="360" width="120" height="60" as="geometry" />
        </mxCell>
        <mxCell id="o6n3ZqwZsmtGHZvhFfPD-26" value="" style="rounded=1;whiteSpace=wrap;html=1;" parent="1" vertex="1">
          <mxGeometry x="423" y="360" width="120" height="60" as="geometry" />
        </mxCell>
        <mxCell id="o6n3ZqwZsmtGHZvhFfPD-27" value="" style="rounded=1;whiteSpace=wrap;html=1;" parent="1" vertex="1">
          <mxGeometry x="589" y="360" width="120" height="60" as="geometry" />
        </mxCell>
      </root>
    </mxGraphModel>
  </diagram>
</mxfile>
